Coordinates
version=1
nRows=26
nColumns=27
inDegrees=yes

Units are S.I. units (second, meters, Newtons, ...)
If the header above contains a line with 'inDegrees', this indicates whether rotational values are in degrees (yes) or radians (no).

endheader
time	pelvis_rotation	pelvis_tilt	pelvis_list	pelvis_tx	pelvis_ty	pelvis_tz	hip_flexion_r	hip_adduction_r	hip_rotation_r	knee_angle_r	knee_rotation_r	knee_adduction_r	knee_angle_r_beta	ankle_angle_r	subtalar_angle_r	mtp_angle_r	hip_flexion_l	hip_adduction_l	hip_rotation_l	knee_angle_l	knee_rotation_l	knee_adduction_l	knee_angle_l_beta	ankle_angle_l	subtalar_angle_l	mtp_angle_l
     10.13500000	      9.38695094	    -45.71633283	      2.65458894	     -0.14178259	      0.76414793	     -1.19525022	     98.33019560	    -16.81176797	     -7.94549714	     70.59540242	      0.00000000	      0.65448279	      1.23212221	     13.46530240	      0.00000000	      0.00000000	     99.37311876	     -5.82766215	     -3.69583602	     65.52784465	      0.00000000	     -9.24551359	      1.14367664	      9.37095087	      0.00000000	      0.00000000
     10.14000000	     10.46975130	    -45.62269512	      2.50528435	     -0.14124504	      0.76516236	     -1.19586807	     97.70221729	    -17.95698660	     -9.15359607	     70.44147779	      0.00000000	      0.90271804	      1.22943572	     13.58254902	      0.00000000	      0.00000000	     99.27336885	     -4.67525124	     -2.65638654	     65.21649260	      0.00000000	     -8.76245818	      1.13824252	      9.13055437	      0.00000000	      0.00000000
     10.14500000	      9.61033084	    -45.71163052	      2.89202503	     -0.14178545	      0.76592121	     -1.19534988	     98.12236098	    -16.96567862	     -7.96284569	     70.23679789	      0.00000000	      0.66846185	      1.22586338	     13.27933563	      0.00000000	      0.00000000	     99.05223389	     -5.63010016	     -3.83874529	     65.03502939	      0.00000000	     -9.22142224	      1.13507539	      9.16916204	      0.00000000	      0.00000000
     10.15000000	     10.59157495	    -45.61522436	      2.69762592	     -0.14126511	      0.76690898	     -1.19592190	     97.49869249	    -18.02829057	     -9.16954983	     70.07955939	      0.00000000	      0.94020274	      1.22311905	     13.43313661	      0.00000000	      0.00000000	     98.95432560	     -4.58180081	     -2.83273273	     64.74246325	      0.00000000	     -8.75224026	      1.12996915	      8.93385768	      0.00000000	      0.00000000
     10.15500000	      9.60311433	    -45.66783300	      2.88417931	     -0.14168568	      0.76774313	     -1.19530616	     97.78864844	    -16.96936136	     -8.15526482	     69.82553511	      0.00000000	      0.75164796	      1.21868549	     13.16204737	      0.00000000	      0.00000000	     98.70763265	     -5.63738847	     -3.93116308	     64.58405131	      0.00000000	     -9.23503308	      1.12720434	      9.02470824	      0.00000000	      0.00000000
     10.16000000	      9.61229217	    -45.66050704	      2.92234888	     -0.14166110	      0.76862887	     -1.19533148	     97.65882001	    -16.97595177	     -8.20114513	     69.62410472	      0.00000000	      0.77816499	      1.21516987	     13.07373477	      0.00000000	      0.00000000	     98.54549572	     -5.62623615	     -4.00013999	     64.35833770	      0.00000000	     -9.23457583	      1.12326489	      8.94669161	      0.00000000	      0.00000000
     10.16500000	      9.63133340	    -45.63627910	      2.90507880	     -0.14159010	      0.76951403	     -1.19531108	     97.47585449	    -16.99433814	     -8.31907688	     69.41612365	      0.00000000	      0.79454807	      1.21153991	     13.01582277	      0.00000000	      0.00000000	     98.38550430	     -5.60558270	     -4.01011136	     64.14211289	      0.00000000	     -9.23822161	      1.11949106	      8.84686475	      0.00000000	      0.00000000
     10.17000000	      9.75334523	    -45.62809300	      3.02983589	     -0.14158879	      0.77032775	     -1.19543843	     97.37034895	    -17.10448863	     -8.36055429	     69.24800701	      0.00000000	      0.84546657	      1.20860572	     12.95480136	      0.00000000	      0.00000000	     98.23100264	     -5.49347244	     -4.07871984	     63.91207544	      0.00000000	     -9.22852353	      1.11547615	      8.77019486	      0.00000000	      0.00000000
     10.17500000	      9.67291720	    -45.59530463	      2.97144907	     -0.14150481	      0.77126035	     -1.19539435	     97.17183312	    -17.03339230	     -8.44838948	     69.01755412	      0.00000000	      0.85951911	      1.20458356	     12.88924902	      0.00000000	      0.00000000	     98.05059844	     -5.56113589	     -4.12851390	     63.70499349	      0.00000000	     -9.23377705	      1.11186189	      8.67933006	      0.00000000	      0.00000000
     10.18000000	     10.53885477	    -45.45918353	      2.57113517	     -0.14087953	      0.77226927	     -1.19584657	     96.40879782	    -17.98251357	     -9.80657585	     68.80306529	      0.00000000	      1.09509699	      1.20084002	     12.99428580	      0.00000000	      0.00000000	     97.94773050	     -4.60997658	     -2.97807013	     63.45658244	      0.00000000	     -8.78558965	      1.10752630	      8.47661270	      0.00000000	      0.00000000
     10.18500000	      9.61810611	    -45.53881817	      2.89269078	     -0.14139695	      0.77300323	     -1.19541052	     96.79853807	    -17.00845637	     -8.68641638	     68.57941564	      0.00000000	      0.90666012	      1.19693660	     12.74241884	      0.00000000	      0.00000000	     97.72379838	     -5.58890047	     -4.16748670	     63.29170270	      0.00000000	     -9.24221710	      1.10464860	      8.52236052	      0.00000000	      0.00000000
     10.19000000	      9.71589207	    -45.51570168	      2.97532359	     -0.14135613	      0.77384227	     -1.19556236	     96.64858204	    -17.10844105	     -8.77164712	     68.39324536	      0.00000000	      0.96550401	      1.19368732	     12.69796181	      0.00000000	      0.00000000	     97.55501948	     -5.48950768	     -4.21033014	     63.06551467	      0.00000000	     -9.23079438	      1.10070088	      8.43282280	      0.00000000	      0.00000000
     10.19500000	     10.58774010	    -45.41534723	      2.66045136	     -0.14082935	      0.77476504	     -1.19604435	     95.97723475	    -18.03791070	    -10.02789736	     68.20688122	      0.00000000	      1.18049185	      1.19043465	     12.82668139	      0.00000000	      0.00000000	     97.48714861	     -4.54197319	     -3.11351053	     62.82109767	      0.00000000	     -8.75890259	      1.09643499	      8.18638838	      0.00000000	      0.00000000
     10.20000000	      9.77384982	    -45.46521949	      3.07729620	     -0.14133816	      0.77549806	     -1.19575672	     96.34866474	    -17.18368858	     -8.90513848	     67.99494649	      0.00000000	      1.04837131	      1.18673569	     12.57727170	      0.00000000	      0.00000000	     97.21878699	     -5.41953307	     -4.34156489	     62.63319188	      0.00000000	     -9.22255192	      1.09315542	      8.26498988	      0.00000000	      0.00000000
     10.20500000	      9.69203667	    -45.42222519	      2.97129907	     -0.14124374	      0.77640200	     -1.19574384	     96.11118472	    -17.13553421	     -9.07711152	     67.74697517	      0.00000000	      1.09265871	      1.18240777	     12.52188863	      0.00000000	      0.00000000	     97.04127564	     -5.47735432	     -4.33860172	     62.43628690	      0.00000000	     -9.22838757	      1.08971878	      8.19098346	      0.00000000	      0.00000000
     10.21000000	      9.75057887	    -45.38248077	      2.96039765	     -0.14116950	      0.77728812	     -1.19584436	     95.89126133	    -17.21463434	     -9.26128500	     67.52515277	      0.00000000	      1.17347264	      1.17853624	     12.47400805	      0.00000000	      0.00000000	     96.86279399	     -5.40755595	     -4.31972168	     62.20880511	      0.00000000	     -9.21946501	      1.08574847	      8.10373925	      0.00000000	      0.00000000
     10.21500000	      9.85954444	    -45.36354578	      3.00876299	     -0.14115376	      0.77811434	     -1.19601278	     95.72330653	    -17.34074335	     -9.41631011	     67.32346635	      0.00000000	      1.24549126	      1.17501615	     12.42260966	      0.00000000	      0.00000000	     96.71228205	     -5.29042150	     -4.31352748	     61.98754334	      0.00000000	     -9.21239263	      1.08188673	      7.99739221	      0.00000000	      0.00000000
     10.22000000	      9.89057187	    -45.30875620	      3.05650796	     -0.14108657	      0.77895703	     -1.19614306	     95.53076646	    -17.39705358	     -9.51084397	     67.12131347	      0.00000000	      1.29390365	      1.17148792	     12.36615247	      0.00000000	      0.00000000	     96.50342032	     -5.25238977	     -4.37817471	     61.76497371	      0.00000000	     -9.20542128	      1.07800215	      7.93642250	      0.00000000	      0.00000000
     10.22500000	      9.92655036	    -45.29749631	      2.95167878	     -0.14118990	      0.77978495	     -1.19635239	     95.31497312	    -17.45188703	     -9.73523525	     66.87450507	      0.00000000	      1.31754472	      1.16718030	     12.30382550	      0.00000000	      0.00000000	     96.39767913	     -5.11039178	     -4.12941526	     61.53482303	      0.00000000	     -8.76486179	      1.07398527	      7.72396459	      0.00000000	      0.00000000
     10.23000000	      9.69218325	    -45.20658814	      2.78253985	     -0.14086536	      0.78085070	     -1.19608351	     94.99271814	    -17.27761185	     -9.92891218	     66.58421048	      0.00000000	      1.38425402	      1.16211370	     12.22442958	      0.00000000	      0.00000000	     96.12063050	     -5.40255653	     -4.35384360	     61.34277806	      0.00000000	     -9.20214638	      1.07063345	      7.76246420	      0.00000000	      0.00000000
     10.23500000	      9.68855373	    -45.17651321	      2.79940920	     -0.14088832	      0.78167535	     -1.19618454	     94.82162871	    -17.30214025	    -10.03358432	     66.36262143	      0.00000000	      1.45188898	      1.15824624	     12.16287035	      0.00000000	      0.00000000	     95.94792320	     -5.39323342	     -4.40994448	     61.13188671	      0.00000000	     -9.21429377	      1.06695270	      7.70064178	      0.00000000	      0.00000000
     10.24000000	      9.62519526	    -45.13333624	      2.70028910	     -0.14081073	      0.78258765	     -1.19619066	     94.57684872	    -17.27712857	    -10.23321715	     66.10599591	      0.00000000	      1.51006440	      1.15376728	     12.09920025	      0.00000000	      0.00000000	     95.77004657	     -5.43940358	     -4.40451152	     60.92434897	      0.00000000	     -9.21477524	      1.06333048	      7.61241520	      0.00000000	      0.00000000
     10.24500000	      9.58897091	    -45.08039334	      2.59587464	     -0.14071933	      0.78349825	     -1.19623427	     94.30965101	    -17.28801144	    -10.47734456	     65.84904525	      0.00000000	      1.59326488	      1.14928265	     12.04228935	      0.00000000	      0.00000000	     95.58096086	     -5.45379620	     -4.36933437	     60.71153450	      0.00000000	     -9.21317358	      1.05961617	      7.53988521	      0.00000000	      0.00000000
     10.25000000	      9.67140666	    -45.04355561	      2.63956957	     -0.14067942	      0.78435011	     -1.19639047	     94.11029810	    -17.40270739	    -10.65311058	     65.63498535	      0.00000000	      1.69134551	      1.14554660	     11.99724777	      0.00000000	      0.00000000	     95.39825239	     -5.36695462	     -4.38925135	     60.47905147	      0.00000000	     -9.20282110	      1.05555858	      7.44790141	      0.00000000	      0.00000000
     10.25500000	      9.59572005	    -44.97969002	      2.54351285	     -0.14057726	      0.78530639	     -1.19639763	     93.83288177	    -17.36796709	    -10.85995312	     65.36171063	      0.00000000	      1.77980264	      1.14077706	     11.92960857	      0.00000000	      0.00000000	     95.17649031	     -5.41880385	     -4.39360788	     60.24984537	      0.00000000	     -9.20211854	      1.05155818	      7.38196179	      0.00000000	      0.00000000
     10.26000000	      9.51296730	    -44.94717985	      2.48282375	     -0.14057540	      0.78613644	     -1.19643136	     93.63642615	    -17.33376278	    -11.00651481	     65.11929459	      0.00000000	      1.83437523	      1.13654610	     11.85967775	      0.00000000	      0.00000000	     95.01578973	     -5.48053607	     -4.43480837	     60.05802092	      0.00000000	     -9.19945312	      1.04821021	      7.29152131	      0.00000000	      0.00000000
